# xmcd
# 
# Track frame offsets:
#     187
#     14085
#     39120
#     51820
#     77827
#     91275
#     113627
#     124465
#     148037
#     178417
#     195597
#     212185
#     229702
#     242440
#     257565
# 
# Disc length: 3724
# 
# Revision: 4
# Processed by: cddbd v1.5.2PL0 Copyright (c) Steve Scherf et al.
# Submitted via: fre:ac v1.1rc1
# 
DISCID=cf0e8a0f
DTITLE=鈴木重子 - premiere
DYEAR=1995
DGENRE=J-Jazz
TTITLE0=I Concentrate On You
TTITLE1=More Than You Know
TTITLE2=It's All Right With Me
TTITLE3=I Should Care
TTITLE4=Softly, As In A Morning Sunrize (朝日のようにさわやかに)
TTITLE5=Dindi
TTITLE6=You And The Night And The Music (あなたと夜と音楽と)
TTITLE7=Lately
TTITLE8=I Will Wait For You (シェルブールの雨傘)
TTITLE9=On The Street Where You Live (君住む街角)
TTITLE10=Boy On A Dolphin (イルカに乗った少年)
TTITLE11=It Might As Well Be Spring (春のごとく)
TTITLE12=Lover, Come Back To Me (恋人よ我に帰れ)
TTITLE13=Song Of The Jet (ジェットのサンバ)
TTITLE14=Someone To Watch Over Me (誰かが私を見つめてる)
EXTD=
EXTT0=
EXTT1=
EXTT2=
EXTT3=
EXTT4=
EXTT5=
EXTT6=
EXTT7=
EXTT8=
EXTT9=
EXTT10=
EXTT11=
EXTT12=
EXTT13=
EXTT14=
PLAYORDER=
